<?xml version="1.0" standalone="yes"?>
<svg xmlns="http://www.w3.org/2000/svg" width="512" height="512">
<path style="fill:#ffffff; stroke:none;" d="M0 0L0 189C9.45139 182.232 23.2448 188.559 29.9105 176.996C33.9859 169.927 31.9843 158.866 32 151C32.0093 146.329 32.0254 140.864 37.0941 138.742C43.7938 135.938 54.8064 138 62 138L120 138C126.17 138 143.564 135.824 141.238 146.985C139.338 156.108 125.697 154 119 154L48 154C48 172.336 47.3618 191.574 27 198.91C23.4105 200.203 19.7939 200.835 16 201L16 230C27.1326 231.414 36.6575 235.101 43.0309 245C56.4252 265.805 39.1592 290.808 16 291L16 321C37.5966 321.06 47.9978 338.213 48 358L278 358L332 358C338.513 358 348.167 356.371 352.102 363.055C354.97 367.926 351.018 373.066 345.999 373.852C335.817 375.446 324.309 374 314 374C309.893 374 304.953 373.28 301 374.564C296.731 375.951 293.332 379.74 290 382.579C259.588 408.487 229.411 434.669 199 460.579L176 480.271C172.71 483.085 168.862 487.461 164.285 487.951C159.734 488.438 156.358 484.018 153.729 480.996C149.179 475.765 144.599 469.602 137 469.279C131.479 469.044 127.015 472.705 123 475.988C120.247 478.24 116.864 481.243 113 480.153C108.662 478.928 105.508 474.239 102.729 471L83.8704 449C81.1192 445.784 76.7791 441.699 77.7608 437.004C78.6744 432.635 83.0428 429.935 85.9576 426.961C91.4817 421.324 94.4331 413.164 89.1458 406.185C84.4556 399.995 75.1892 399.543 69 403.638C62.7736 407.757 57.4201 415.177 50.0039 408.852C41.1652 401.313 33.9438 390.833 26.4213 382C23.6245 378.716 18.8536 374.663 18.7384 370C18.4808 359.57 35.0666 359.058 30.8912 347C30.293 345.272 29.4823 343.555 28.3511 342.108C23.3654 335.732 15.9316 337.757 9 336.811C5.62823 336.351 2.89999 334.655 0 333L0 512L512 512L512 323C502.549 329.768 488.755 323.441 482.09 335.004C478.014 342.073 480.016 353.134 480 361C479.991 365.338 480.102 370.331 475.811 372.821C471.414 375.373 463.906 374 459 374L418 374C412.686 373.998 404.26 373.523 404.623 366.004C404.951 359.212 412.749 358.068 418 358.004C433.328 357.816 448.67 358 464 358C464 339.664 464.638 320.426 485 313.09C488.589 311.797 492.206 311.165 496 311L496 282C484.867 280.586 475.343 276.899 468.969 267C455.57 246.187 472.884 221.191 496 221L496 191C474.403 190.941 464.002 173.787 464 154L252 154L202 154C196.205 154 187.498 154.983 184.183 148.892C182.075 145.018 184.078 140.359 188.044 138.742C195.114 135.861 203.779 139.782 211 137.436C214.896 136.17 217.964 132.868 221 130.271L238 115.729C264.016 93.4621 290.045 71.2078 316 48.8696L337 30.8696C340.018 28.278 343.52 24.4983 347.715 24.0494C352.266 23.5623 355.642 27.9818 358.271 31.0038C362.972 36.4079 367.984 43.0751 376 42.7215C384.432 42.3495 390.989 29.5861 399 31.8472C403.338 33.0717 406.492 37.7612 409.271 41L428.13 63C430.881 66.2163 435.221 70.301 434.239 74.9962C433.326 79.3654 428.957 82.0651 426.042 85.0394C420.518 90.6765 417.567 98.8363 422.854 105.815C427.544 112.005 436.811 112.457 443 108.362C449.226 104.243 454.58 96.8226 461.996 103.148C470.835 110.687 478.056 121.167 485.579 130C488.375 133.284 493.146 137.337 493.262 142C493.525 152.675 476.962 153.946 481.483 165.999C481.997 167.37 482.747 168.738 483.649 169.892C488.635 176.268 496.068 174.243 503 175.189C506.372 175.649 509.1 177.345 512 179L512 0L0 0z"/>
<path style="fill:#000000; stroke:none;" d="M464 154C464 169.992 468.79 185.321 486 190.211C489.259 191.138 492.647 190.998 496 191L496 221C487.868 221.022 480.351 222.755 474.09 228.329C460.374 240.54 461.309 263.026 475.004 274.787C480.925 279.872 488.428 281.402 496 282L496 311C492.204 311.079 488.626 311.56 485 312.749C464.016 319.632 464 339.566 464 358C447.501 358 430.44 356.736 414 358.093C408.07 358.583 401.636 363.286 405.183 369.941C408.006 375.239 414.988 374 420 374L462 374C466.634 374 474.725 375.541 478.106 371.566C480.694 368.525 480 363.695 480 360C480.001 351.798 478.062 340.928 483.419 334.015C486.571 329.948 490.885 327.515 496 327.093C501.274 326.659 509.56 328.6 511.566 321.906C512.825 317.706 512 312.345 512 308L512 281C512 276.935 513.062 270.716 509.566 267.742C506.527 265.156 501.66 266.167 498 265.91C490.285 265.369 482.141 261.469 480.778 253C480.446 250.937 480.749 248.941 481.498 247.001C483.716 241.248 488.932 237.614 495 237.094C501.283 236.556 510.5 238.567 511.852 229.996C513.805 217.614 512 203.542 512 191C512 186.793 513.097 180.703 509.682 177.514C506.094 174.163 500.454 175.179 496 174.96C489.38 174.635 483.963 171.336 481.488 165C477.648 155.174 492.589 152.147 493.551 143C494.059 138.174 490.128 134.36 487.27 131C481.868 124.649 476.447 118.312 471 112C467.949 108.464 465.001 104.135 460.999 101.603C454.113 97.2468 448.204 103.873 443 107.645C437.089 111.929 429.671 112.085 424.34 106.671C423.016 105.326 421.962 103.735 421.228 101.996C415.78 89.0755 432.766 85.5077 434.562 74.9962C435.371 70.2563 431.829 66.3362 428.996 63C422.744 55.6362 416.435 48.319 410.13 41C407.263 37.6709 404.328 33.2846 400 31.7577C390.426 28.3799 384.588 42.9615 375 42.4861C362.708 41.8767 359.05 22.1167 347 23.9051C342.242 24.6113 338.474 28.757 335 31.7292L315 48.8696C289.713 70.6332 264.259 92.2037 239 114C233.019 119.161 227.014 124.298 221 129.421C217.668 132.26 214.269 136.049 210 137.436C202.834 139.764 194.065 135.75 187.109 138.742C183.057 140.485 182.001 146.15 184.179 149.775C187.512 155.325 196.573 154 202 154L253 154L464 154z"/>
<path style="fill:#ffffff; stroke:none;" d="M347 43C324.523 62.6335 301.674 81.8639 279 101.271C265.088 113.178 251.584 125.928 237 137C243.194 139.599 252.314 138 259 138L306 138L471 138C467.815 133.184 461.729 123.062 455.985 121.306C452.63 120.279 448.943 123.703 446 124.906C441.124 126.899 435.24 127.965 430 127.153C403.955 123.115 395.677 90.8882 415 74C412.467 67.461 406.855 62.2225 402.271 57.0054C400.617 55.1232 398.758 52.4106 395.985 52.3055C392.924 52.1895 389.701 55.132 387 56.3202C382.274 58.3994 377.147 59.4336 372 58.6999C360.843 57.1094 355.01 49.929 347 43z"/>
<path style="fill:#000000; stroke:none;" d="M48 358C48 342.008 43.2096 326.679 26 321.789C22.7412 320.862 19.3526 321.002 16 321L16 291C23.7418 290.979 30.7741 289.464 36.9606 284.471C51.7054 272.57 51.0297 249.265 36.9961 237.213C31.0751 232.128 23.5717 230.598 16 230L16 201C19.7958 200.921 23.3738 200.44 27 199.251C47.984 192.368 48 172.434 48 154L121 154C127.749 154 142.568 155.815 141.667 145C140.84 135.091 125.717 138 119 138L57 138C51.2309 138 39.1982 135.734 34.5725 139.742C31.4286 142.467 32.0017 147.274 32 151C31.9966 158.638 33.8424 169.119 29.9105 175.999C26.9726 181.14 21.8653 184.423 16 184.907C11.7299 185.259 5.99174 183.867 2.43364 186.894C-1.05545 189.862 0 195.936 0 200L0 228C0 232.221 -0.961168 237.93 0.742284 241.891C2.85479 246.803 8.64824 245.845 13 246.039C21.2337 246.406 30.6938 250.532 31.3465 260C31.9786 269.171 23.1013 274.77 15 274.985C9.068 275.143 1.35747 274.337 0.148148 282.004C-1.80499 294.386 0 308.458 0 321C0 325.207 -1.09658 331.297 2.3179 334.486C6.15759 338.072 12.2662 336.703 17 337.093C23.268 337.61 28.1513 341.125 30.5162 347C34.931 357.968 19.4652 359.356 18.4491 369C17.9407 373.825 21.8726 377.641 24.7299 381C30.1321 387.351 35.5527 393.688 41 400C44.0512 403.536 46.9991 407.865 51.0008 410.397C57.8866 414.753 63.796 408.127 69 404.355C74.911 400.071 82.329 399.915 87.6597 405.329C88.9838 406.674 90.0385 408.265 90.7716 410.004C96.2204 422.924 79.2338 426.492 77.4383 437.004C76.6286 441.744 80.1714 445.664 83.0039 449C89.2559 456.364 95.5652 463.681 101.87 471C104.737 474.329 107.672 478.715 112 480.242C121.574 483.62 127.412 469.039 137 469.514C149.292 470.123 152.95 489.883 165 488.095C169.758 487.389 173.526 483.243 177 480.271L201 459.729C231.019 434.035 260.921 408.203 291 382.579C294.332 379.74 297.731 375.951 302 374.564C305.953 373.28 310.893 374 315 374C325.299 374 336.825 375.461 346.995 373.852C352.053 373.051 355.019 367.781 352.667 363.055C349.385 356.458 340.047 358 334 358L279 358L48 358M420 189L420 323L92 323L92 189L148 189C154.531 189 165.087 187.614 161.257 178.044C158.515 171.192 148.861 173 143 173L95 173C89.4861 173 80.6213 171.497 77.3179 177.214C75.2354 180.818 76 186.012 76 190L76 217L76 296L76 320C76 324.13 75.3555 328.959 76.5725 332.957C78.9726 340.841 89.6519 339 96 339L157 339L355 339L409 339C415.587 339 425.972 340.935 431.867 337.543C435.406 335.507 435.886 331.728 435.985 328C436.18 320.677 436 313.326 436 306L436 209C436 200.676 436.206 192.321 435.985 184C435.862 179.376 434.846 175.239 429.981 173.653C424.601 171.898 417.601 173 412 173L376 173L255 173C241.156 173 226.79 171.889 213 173.094C207.684 173.559 202.99 177.085 204.449 182.995C206.068 189.554 212.645 189 218 189L256 189L420 189M129 235L129 281C129 286.345 127.592 294.79 135.004 295.481C143.445 296.27 143 287.922 143 282L143 235C147.245 235 154.932 236.474 158.566 233.972C162.081 231.553 161.645 224.552 157.772 222.742C154.448 221.19 149.57 222 146 222L125 222C121.599 222 117.31 221.365 114.109 222.742C109.601 224.681 108.938 231.348 113.228 233.972C117.18 236.389 124.518 235 129 235M172.044 222.613C165.236 224.329 167 233.731 167 239L167 284C167.01 289.785 168.032 297.353 175.981 295.387C182.895 293.678 181 284.362 181 279L181 234C180.997 228.191 180.139 220.572 172.044 222.613M212 222.432C205.841 223.243 199.603 224.898 195.649 230.093C190.301 237.12 191 247.676 191 256C191 269.726 188.515 289.419 205 294.775C207.932 295.728 210.938 295.964 214 295.996C217.406 296.031 220.712 295.938 224 294.956C231.519 292.711 244.428 280.146 237.141 271.514C234.571 268.469 229.208 268.616 226.563 271.434C224.371 273.769 224.233 277.332 222.297 279.867C218.568 284.748 211.455 284.672 207.728 279.786C205.663 277.079 205.189 273.296 205.039 270C204.67 261.868 203.343 250.81 205.804 243.001C207.124 238.812 210.373 235.282 215 235.167C224.517 234.932 225.024 253.541 235.772 246.972C240.813 243.891 238.459 236.009 235.995 232.004C231.24 224.278 220.634 221.295 212 222.432M266 267C269.019 273.382 273.422 279.133 277.333 285C279.381 288.071 281.332 292.136 284.326 294.397C289.123 298.019 296.359 294.036 295.664 288C295.28 284.67 292.792 281.696 291 279C287.482 273.707 284.125 268.322 280.656 263C279.135 260.667 276.589 257.897 276.357 255C276.138 252.269 278.251 250.002 279.806 248C283.392 243.381 292.908 235.368 292.2 229.005C291.484 222.577 284.333 221.481 280.174 225.232C273.113 231.602 264.686 243.281 261 252C258.612 243.919 261.279 235.305 259.852 227.108C258.701 220.498 248.205 221.067 246.434 227.055C244.851 232.405 246 239.455 246 245L246 282C246 287.922 245.555 296.27 253.996 295.481C259.899 294.93 259.99 289.687 260 285C260.015 277.582 259.666 271.907 266 267M315 283L315 264C319.532 264 327.782 265.582 331.682 262.972C334.968 260.774 333.91 255.991 330.852 254.179C326.696 251.717 319.661 253 315 253L315 235C323.302 235 332.823 236.307 340.985 234.772C345.057 234.005 347.886 230.265 346.242 226.109C344.714 222.245 340.563 222.054 337 222.004C328.355 221.883 319.643 221.785 311 222.015C307.512 222.107 303.171 222.438 301.603 226.133C299.754 230.493 301 237.335 301 242L301 277C301 281.452 299.392 289.926 302.603 293.486C305.11 296.265 309.608 295.983 313 295.999C320.995 296.038 329.005 296.108 337 295.996C340.563 295.946 344.714 295.755 346.242 291.891C347.886 287.735 345.057 283.995 340.985 283.228C332.823 281.693 323.302 283 315 283M367 235L367 282C367 287.922 366.555 296.27 374.996 295.481C382.408 294.79 381 286.345 381 281L381 235C385.419 235 392.855 236.415 396.721 233.972C400.807 231.391 400.218 224.656 395.867 222.742C392.696 221.348 388.376 222 385 222L364 222C360.43 222 355.552 221.19 352.228 222.742C348.355 224.552 347.919 231.553 351.434 233.972C355.068 236.474 362.755 235 367 235z"/>
<path style="fill:#ffffff; stroke:none;" d="M511 233C503.697 238.83 495.747 234.704 488.015 238.688C478.007 243.846 478.131 258.584 488.004 263.836C495.498 267.822 505.04 263.247 511 270C514.004 262.841 512 251.744 512 244C512 240.298 512.441 236.435 511 233M0 242L0 279C2.56052 277.482 5.01144 275.753 8 275.228C13.7758 274.212 19.6317 276.059 24.9568 272.772C34.1296 267.108 33.4202 253.177 23.9961 248.164C16.0429 243.934 7.47867 247.821 0 242M41 374C44.1854 378.816 50.2711 388.938 56.0147 390.694C59.3702 391.721 63.0567 388.297 66 387.094C70.8758 385.101 76.7599 384.035 82 384.847C108.045 388.885 116.323 421.112 97 438C99.4007 444.197 104.556 449.032 108.87 453.999C110.545 455.928 112.413 458.858 115.039 459.553C119.379 460.701 126.498 454.698 131 453.68C144.438 450.64 156.227 458.799 164 469C175.21 461.988 184.963 451.861 195 443.271C221.505 420.585 247.217 396.092 275 375C268.806 372.401 259.686 374 253 374L206 374L41 374z"/>
</svg>
