<?xml version="1.0" encoding="iso-8859-1"?>
<!-- Uploaded to: SVG Repo, www.svgrepo.com, Generator: SVG Repo Mixer Tools -->
<svg fill="#000000" height="800px" width="800px" version="1.1" id="Layer_1" xmlns="http://www.w3.org/2000/svg" xmlns:xlink="http://www.w3.org/1999/xlink" 
	 viewBox="0 0 356.28 356.28" xml:space="preserve">
<g>
	<g>
		<path d="M334.479,50.199H55.035C55.035,62.241,45.276,72,33.234,72v96.379c12.042,0,21.801,9.759,21.801,21.801h279.444
			c0-12.042,9.759-21.801,21.801-21.801V72C344.238,72,334.479,62.236,334.479,50.199z M275.062,51.233h5.862v5.862h-5.862V51.233z
			 M275.062,62.958h5.862v5.862h-5.862V62.958z M275.062,74.683h5.862v5.862h-5.862V74.683z M275.062,86.413h5.862v5.862h-5.862
			V86.413z M217.38,178.107H64.886c-3.436-8.986-10.593-16.138-19.579-19.579V81.846c8.986-3.436,16.143-10.593,19.579-19.579
			H217.38V178.107z M280.924,186.089h-5.862v-5.862h5.862V186.089z M280.924,174.364h-5.862v-5.862h5.862V174.364z M280.924,162.634
			h-5.862v-5.862h5.862V162.634z M280.924,150.909h-5.862v-5.862h5.862V150.909z M277.376,143.168
			c-11.192,0-20.26-9.073-20.26-20.26c0-10.399,7.859-18.867,17.946-20.029v-4.741h5.862v4.864
			c9.492,1.684,16.717,9.928,16.717,19.907C297.641,134.1,288.568,143.168,277.376,143.168z"/>
		<path d="M259.128,202.243v0.01c6.881,5.207,9.974,14.397,6.902,22.948c-3.379,9.385-12.969,14.699-22.467,13.071l-1.649,4.577
			l-5.519-1.987l1.608-4.459c-9.093-4.511-13.624-15.14-10.102-24.919c1.372-3.814,3.794-6.938,6.799-9.226h-45.706l-19.011,52.828
			l-143.478-51.63c-0.087-4.716-1.172-9.395-3.241-13.793c-2.068-4.393-4.987-8.213-8.566-11.284l6.461-17.956v-35.656L0,183.575
			c11.331,4.076,17.208,16.563,13.133,27.894l164.117,59.054l98.826,35.558c4.076-11.331,16.568-17.208,27.894-13.133l32.635-90.691
			c-0.01-0.005-0.02-0.01-0.031-0.015H259.128z M226.033,286.984l-5.519-1.987l1.987-5.519l5.519,1.987L226.033,286.984z
			 M230.001,275.95l-5.519-1.987l1.987-5.519l5.519,1.987L230.001,275.95z M233.969,264.916l-5.519-1.987l1.987-5.519l5.519,1.987
			L233.969,264.916z M237.942,253.883l-5.519-1.987l1.987-5.519l5.519,1.987L237.942,253.883z"/>
	</g>
</g>
</svg>